<svg data-v-558cff73="" data-v-a1b630d2="" width="24" height="24" xmlns="http://www.w3.org/2000/svg" fill-rule="evenodd" clip-rule="evenodd" fill="currentColor"><path data-v-558cff73="" data-v-a1b630d2="" d="M24 4.60078C23.1 5.00078 22.2 5.30078 21.2 5.40078C22.2 4.80078 23 3.80078 23.4 2.70078C22.4 3.30078 21.4 3.70078 20.3 3.90078C19.4 2.90078 18.1 2.30078 16.7 2.30078C14 2.30078 11.8 4.50078 11.8 7.20078C11.8 7.60078 11.8 8.00078 11.9 8.30078C7.7 8.10078 4.1 6.10078 1.7 3.10078C1.2 3.90078 1 4.70078 1 5.60078C1 7.30078 1.9 8.80078 3.2 9.70078C2.4 9.70078 1.6 9.50078 1 9.10078C1 9.10078 1 9.10078 1 9.20078C1 11.6008 2.7 13.6008 4.9 14.0008C4.5 14.1008 4.1 14.2008 3.6 14.2008C3.3 14.2008 3 14.2008 2.7 14.1008C3.3 16.1008 5.1 17.5008 7.3 17.5008C5.6 18.8008 3.5 19.6008 1.2 19.6008C0.8 19.6008 0.4 19.6008 0 19.5008C2.2 20.9008 4.8 21.7008 7.5 21.7008C16.6 21.7008 21.5 14.2008 21.5 7.70078C21.5 7.50078 21.5 7.30078 21.5 7.10078C22.5 6.40078 23.3 5.50078 24 4.60078Z" style="pointer-events: none;"></path></svg>